<svg width="2454" height="1109" xmlns="http://www.w3.org/2000/svg" xmlns:xlink="http://www.w3.org/1999/xlink" xml:space="preserve" overflow="hidden"><defs><clipPath id="clip0"><rect x="1566" y="552" width="2454" height="1109"/></clipPath></defs><g clip-path="url(#clip0)" transform="translate(-1566 -552)"><rect x="1567" y="553" width="2451" height="1106" fill="#FFFFFF"/><g><path d="M1704.5 1323.54 3968.5 1323.54M1704.5 1243.54 3968.5 1243.54M1704.5 1163.54 3968.5 1163.54M1704.5 1083.54 3968.5 1083.54M1704.5 1003.53 3968.5 1003.53M1704.5 923.53 3968.5 923.53M1704.5 843.528 3968.5 843.528M1704.5 763.525 3968.5 763.525M1704.5 683.523 3968.5 683.523M1704.5 603.5 3968.5 603.5" stroke="#D9D9D9" stroke-width="3.4375" stroke-linejoin="round" stroke-miterlimit="10" fill="none"/></g><g><path d="M1704.5 603.5 1704.5 1403.5M1722.56 603.5 1722.56 1403.5M1741.56 603.5 1741.56 1403.5M1760.56 603.5 1760.56 1403.5M1779.56 603.5 1779.56 1403.5M1798.56 603.5 1798.56 1403.5M1817.56 603.5 1817.56 1403.5M1836.56 603.5 1836.56 1403.5M1854.56 603.5 1854.56 1403.5M1873.56 603.5 1873.56 1403.5M1892.56 603.5 1892.56 1403.5M1911.56 603.5 1911.56 1403.5M1930.56 603.5 1930.56 1403.5M1949.56 603.5 1949.56 1403.5M1968.56 603.5 1968.56 1403.5M1987.57 603.5 1987.57 1403.5M2005.57 603.5 2005.57 1403.5M2024.57 603.5 2024.57 1403.5M2043.57 603.5 2043.57 1403.5M2062.57 603.5 2062.57 1403.5M2081.57 603.5 2081.57 1403.5M2100.57 603.5 2100.57 1403.5M2119.57 603.5 2119.57 1403.5M2137.57 603.5 2137.57 1403.5M2156.57 603.5 2156.57 1403.5M2175.57 603.5 2175.57 1403.5M2194.57 603.5 2194.57 1403.5M2213.57 603.5 2213.57 1403.5M2232.57 603.5 2232.57 1403.5M2251.57 603.5 2251.57 1403.5M2269.57 603.5 2269.57 1403.5M2288.58 603.5 2288.58 1403.5M2307.58 603.5 2307.58 1403.5M2326.58 603.5 2326.58 1403.5M2345.58 603.5 2345.58 1403.5M2364.58 603.5 2364.58 1403.5M2383.58 603.5 2383.58 1403.5M2402.58 603.5 2402.58 1403.5M2420.58 603.5 2420.58 1403.5M2439.58 603.5 2439.58 1403.5M2458.58 603.5 2458.58 1403.5M2477.58 603.5 2477.58 1403.5M2496.58 603.5 2496.58 1403.5M2515.58 603.5 2515.58 1403.5M2534.58 603.5 2534.58 1403.5M2552.58 603.5 2552.58 1403.5M2571.58 603.5 2571.58 1403.5M2590.59 603.5 2590.59 1403.5M2609.59 603.5 2609.59 1403.5M2628.59 603.5 2628.59 1403.5M2647.59 603.5 2647.59 1403.5M2666.59 603.5 2666.59 1403.5M2685.59 603.5 2685.59 1403.5M2703.59 603.5 2703.59 1403.5M2722.59 603.5 2722.59 1403.5M2741.59 603.5 2741.59 1403.5M2760.59 603.5 2760.59 1403.5M2779.59 603.5 2779.59 1403.5M2798.59 603.5 2798.59 1403.5M2817.59 603.5 2817.59 1403.5M2835.59 603.5 2835.59 1403.5M2854.59 603.5 2854.59 1403.5M2873.59 603.5 2873.59 1403.5M2892.6 603.5 2892.6 1403.5M2911.6 603.5 2911.6 1403.5M2930.6 603.5 2930.6 1403.5M2949.6 603.5 2949.6 1403.5M2968.6 603.5 2968.6 1403.5M2986.6 603.5 2986.6 1403.5M3005.6 603.5 3005.6 1403.5M3024.6 603.5 3024.6 1403.5M3043.6 603.5 3043.6 1403.5M3062.6 603.5 3062.6 1403.5M3081.6 603.5 3081.6 1403.5M3100.6 603.5 3100.6 1403.5M3118.6 603.5 3118.6 1403.5M3137.6 603.5 3137.6 1403.5M3156.6 603.5 3156.6 1403.5M3175.6 603.5 3175.6 1403.5M3194.6 603.5 3194.6 1403.5M3213.61 603.5 3213.61 1403.5M3232.61 603.5 3232.61 1403.5M3250.61 603.5 3250.61 1403.5M3269.61 603.5 3269.61 1403.5M3288.61 603.5 3288.61 1403.5M3307.61 603.5 3307.61 1403.5M3326.61 603.5 3326.61 1403.5M3345.61 603.5 3345.61 1403.5M3364.61 603.5 3364.61 1403.5M3383.61 603.5 3383.61 1403.5M3401.61 603.5 3401.61 1403.5M3420.61 603.5 3420.61 1403.5M3439.61 603.5 3439.61 1403.5M3458.61 603.5 3458.61 1403.5M3477.61 603.5 3477.61 1403.5M3496.61 603.5 3496.61 1403.5M3515.62 603.5 3515.62 1403.5M3533.62 603.5 3533.62 1403.5M3552.62 603.5 3552.62 1403.5M3571.62 603.5 3571.62 1403.5M3590.62 603.5 3590.62 1403.5M3609.62 603.5 3609.62 1403.5M3628.62 603.5 3628.62 1403.5M3647.62 603.5 3647.62 1403.5M3666.62 603.5 3666.62 1403.5M3684.62 603.5 3684.62 1403.5M3703.62 603.5 3703.62 1403.5M3722.62 603.5 3722.62 1403.5M3741.62 603.5 3741.62 1403.5M3760.62 603.5 3760.62 1403.5M3779.62 603.5 3779.62 1403.5M3798.62 603.5 3798.62 1403.5M3816.63 603.5 3816.63 1403.5M3835.63 603.5 3835.63 1403.5M3854.63 603.5 3854.63 1403.5M3873.63 603.5 3873.63 1403.5M3892.63 603.5 3892.63 1403.5M3911.63 603.5 3911.63 1403.5M3930.63 603.5 3930.63 1403.5M3949.63 603.5 3949.63 1403.5M3968.5 603.5 3968.5 1403.5" stroke="#D9D9D9" stroke-width="3.4375" stroke-linejoin="round" stroke-miterlimit="10" fill="none"/></g><g><path d="M1710.06 1132.04 1717.06 1132.04 1717.06 1404 1710.06 1404ZM1729.06 1177.04 1736.06 1177.04 1736.06 1404 1729.06 1404ZM1747.06 1258.04 1755.06 1258.04 1755.06 1404 1747.06 1404ZM1766.06 1298.04 1774.06 1298.04 1774.06 1404 1766.06 1404ZM1785.06 1324.04 1793.06 1324.04 1793.06 1404 1785.06 1404ZM1804.06 1325.04 1812.06 1325.04 1812.06 1404 1804.06 1404ZM1823.06 1329.04 1830.06 1329.04 1830.06 1404 1823.06 1404ZM1842.06 1335.04 1849.06 1335.04 1849.06 1404 1842.06 1404ZM1861.06 1338.04 1868.06 1338.04 1868.06 1404 1861.06 1404ZM1879.06 1341.04 1887.06 1341.04 1887.06 1404 1879.06 1404ZM1898.06 1343.04 1906.06 1343.04 1906.06 1404 1898.06 1404ZM1917.06 1359.04 1925.06 1359.04 1925.06 1404 1917.06 1404ZM1936.06 1361.04 1944.06 1361.04 1944.06 1404 1936.06 1404ZM1955.06 1370.04 1962.06 1370.04 1962.06 1404 1955.06 1404ZM1974.06 1372.04 1981.07 1372.04 1981.07 1404 1974.06 1404ZM1993.07 1372.04 2000.07 1372.04 2000.07 1404 1993.07 1404ZM2012.07 1373.05 2019.07 1373.05 2019.07 1404 2012.07 1404ZM2030.07 1375.05 2038.07 1375.05 2038.07 1404 2030.07 1404ZM2049.07 1378.05 2057.07 1378.05 2057.07 1404 2049.07 1404ZM2068.07 1378.05 2076.07 1378.05 2076.07 1404 2068.07 1404ZM2087.07 1380.05 2095.07 1380.05 2095.07 1404 2087.07 1404ZM2106.07 1383.05 2113.07 1383.05 2113.07 1404 2106.07 1404ZM2125.07 1383.05 2132.07 1383.05 2132.07 1404 2125.07 1404ZM2144.07 1385.05 2151.07 1385.05 2151.07 1404 2144.07 1404ZM2162.07 1385.05 2170.07 1385.05 2170.07 1404 2162.07 1404ZM2181.07 1386.05 2189.07 1386.05 2189.07 1404 2181.07 1404ZM2200.07 1388.05 2208.07 1388.05 2208.07 1404 2200.07 1404ZM2219.07 1388.05 2227.07 1388.05 2227.07 1404 2219.07 1404ZM2238.07 1389.05 2245.07 1389.05 2245.07 1404 2238.07 1404ZM2257.07 1389.05 2264.07 1389.05 2264.07 1404 2257.07 1404ZM2276.07 1389.05 2283.07 1389.05 2283.07 1404 2276.07 1404ZM2295.08 1389.05 2302.08 1389.05 2302.08 1404 2295.08 1404ZM2313.08 1391.05 2321.08 1391.05 2321.08 1404 2313.08 1404ZM2332.08 1391.05 2340.08 1391.05 2340.08 1404 2332.08 1404ZM2351.08 1393.05 2359.08 1393.05 2359.08 1404 2351.08 1404ZM2370.08 1393.05 2378.08 1393.05 2378.08 1404 2370.08 1404ZM2389.08 1393.05 2396.08 1393.05 2396.08 1404 2389.08 1404ZM2408.08 1394.05 2415.08 1394.05 2415.08 1404 2408.08 1404ZM2427.08 1394.05 2434.08 1394.05 2434.08 1404 2427.08 1404ZM2445.08 1394.05 2453.08 1394.05 2453.08 1404 2445.08 1404ZM2464.08 1394.05 2472.08 1394.05 2472.08 1404 2464.08 1404ZM2483.08 1394.05 2491.08 1394.05 2491.08 1404 2483.08 1404ZM2502.08 1396.05 2510.08 1396.05 2510.08 1404 2502.08 1404ZM2521.08 1396.05 2528.08 1396.05 2528.08 1404 2521.08 1404ZM2540.08 1396.05 2547.08 1396.05 2547.08 1404 2540.08 1404ZM2559.08 1396.05 2566.08 1396.05 2566.08 1404 2559.08 1404ZM2577.08 1397.05 2585.08 1397.05 2585.08 1404 2577.08 1404ZM2596.09 1397.05 2604.09 1397.05 2604.09 1404 2596.09 1404ZM2615.09 1397.05 2623.09 1397.05 2623.09 1404 2615.09 1404ZM2634.09 1397.05 2642.09 1397.05 2642.09 1404 2634.09 1404ZM2653.09 1397.05 2661.09 1397.05 2661.09 1404 2653.09 1404ZM2672.09 1397.05 2679.09 1397.05 2679.09 1404 2672.09 1404ZM2691.09 1399.05 2698.09 1399.05 2698.09 1404 2691.09 1404ZM2710.09 1399.05 2717.09 1399.05 2717.09 1404 2710.09 1404ZM2728.09 1399.05 2736.09 1399.05 2736.09 1404 2728.09 1404ZM2747.09 1399.05 2755.09 1399.05 2755.09 1404 2747.09 1404ZM2766.09 1399.05 2774.09 1399.05 2774.09 1404 2766.09 1404ZM2785.09 1399.05 2793.09 1399.05 2793.09 1404 2785.09 1404ZM2804.09 1399.05 2811.09 1399.05 2811.09 1404 2804.09 1404ZM2823.09 1399.05 2830.09 1399.05 2830.09 1404 2823.09 1404ZM2842.09 1399.05 2849.09 1399.05 2849.09 1404 2842.09 1404ZM2860.09 1399.05 2868.09 1399.05 2868.09 1404 2860.09 1404ZM2879.09 1401.05 2887.09 1401.05 2887.09 1404 2879.09 1404ZM2898.1 1401.05 2906.1 1401.05 2906.1 1404 2898.1 1404ZM2917.1 1401.05 2925.1 1401.05 2925.1 1404 2917.1 1404ZM2936.1 1401.05 2943.1 1401.05 2943.1 1404 2936.1 1404ZM2955.1 1401.05 2962.1 1401.05 2962.1 1404 2955.1 1404ZM2974.1 1401.05 2981.1 1401.05 2981.1 1404 2974.1 1404ZM2993.1 1401.05 3000.1 1401.05 3000.1 1404 2993.1 1404ZM3011.1 1401.05 3019.1 1401.05 3019.1 1404 3011.1 1404ZM3030.1 1401.05 3038.1 1401.05 3038.1 1404 3030.1 1404ZM3049.1 1401.05 3057.1 1401.05 3057.1 1404 3049.1 1404ZM3068.1 1402.05 3076.1 1402.05 3076.1 1404 3068.1 1404ZM3087.1 1402.05 3094.1 1402.05 3094.1 1404 3087.1 1404ZM3106.1 1402.05 3113.1 1402.05 3113.1 1404 3106.1 1404ZM3125.1 1402.05 3132.1 1402.05 3132.1 1404 3125.1 1404ZM3143.1 1402.05 3151.1 1402.05 3151.1 1404 3143.1 1404ZM3162.1 1402.05 3170.1 1402.05 3170.1 1404 3162.1 1404ZM3181.1 1402.05 3189.1 1402.05 3189.1 1404 3181.1 1404ZM3200.1 1402.05 3208.11 1402.05 3208.11 1404 3200.1 1404ZM3219.11 1402.05 3226.11 1402.05 3226.11 1404 3219.11 1404ZM3238.11 1402.05 3245.11 1402.05 3245.11 1404 3238.11 1404ZM3257.11 1402.05 3264.11 1402.05 3264.11 1404 3257.11 1404ZM3276.11 1402.05 3283.11 1402.05 3283.11 1404 3276.11 1404ZM3294.11 1402.05 3302.11 1402.05 3302.11 1404 3294.11 1404ZM3313.11 1402.05 3321.11 1402.05 3321.11 1404 3313.11 1404ZM3332.11 1402.05 3340.11 1402.05 3340.11 1404 3332.11 1404ZM3351.11 1402.05 3359.11 1402.05 3359.11 1404 3351.11 1404ZM3370.11 1402.05 3377.11 1402.05 3377.11 1404 3370.11 1404ZM3389.11 1402.05 3396.11 1402.05 3396.11 1404 3389.11 1404ZM3408.11 1402.05 3415.11 1402.05 3415.11 1404 3408.11 1404ZM3426.11 1402.05 3434.11 1402.05 3434.11 1404 3426.11 1404Z" fill="#156082"/></g><g><path d="M1710.06 895.029 1717.06 895.029 1717.06 1132.04 1710.06 1132.04ZM1729.06 1010.03 1736.06 1010.03 1736.06 1177.04 1729.06 1177.04ZM1747.06 1125.04 1755.06 1125.04 1755.06 1258.04 1747.06 1258.04ZM1766.06 1221.04 1774.06 1221.04 1774.06 1298.04 1766.06 1298.04ZM1785.06 1241.04 1793.06 1241.04 1793.06 1324.04 1785.06 1324.04ZM1804.06 1242.04 1812.06 1242.04 1812.06 1325.04 1804.06 1325.04ZM1823.06 1221.04 1830.06 1221.04 1830.06 1329.04 1823.06 1329.04ZM1842.06 1266.04 1849.06 1266.04 1849.06 1335.04 1842.06 1335.04ZM1861.06 1300.04 1868.06 1300.04 1868.06 1338.04 1861.06 1338.04ZM1879.06 1290.04 1887.06 1290.04 1887.06 1341.04 1879.06 1341.04ZM1898.06 1276.04 1906.06 1276.04 1906.06 1343.04 1898.06 1343.04ZM1917.06 1325.04 1925.06 1325.04 1925.06 1359.04 1917.06 1359.04ZM1936.06 1322.04 1944.06 1322.04 1944.06 1361.04 1936.06 1361.04ZM1955.06 1337.04 1962.06 1337.04 1962.06 1370.04 1955.06 1370.04ZM1974.06 1333.04 1981.07 1333.04 1981.07 1372.04 1974.06 1372.04ZM1993.07 1327.04 2000.07 1327.04 2000.07 1372.04 1993.07 1372.04ZM2012.07 1359.04 2019.07 1359.04 2019.07 1373.05 2012.07 1373.05ZM2030.07 1333.04 2038.07 1333.04 2038.07 1375.05 2030.07 1375.05ZM2049.07 1353.04 2057.07 1353.04 2057.07 1378.05 2049.07 1378.05ZM2068.07 1372.04 2076.07 1372.04 2076.07 1378.05 2068.07 1378.05ZM2087.07 1362.04 2095.07 1362.04 2095.07 1380.05 2087.07 1380.05ZM2106.07 1369.04 2113.07 1369.04 2113.07 1383.05 2106.07 1383.05ZM2125.07 1361.04 2132.07 1361.04 2132.07 1383.05 2125.07 1383.05ZM2144.07 1370.04 2151.07 1370.04 2151.07 1385.05 2144.07 1385.05ZM2162.07 1351.04 2170.07 1351.04 2170.07 1385.05 2162.07 1385.05ZM2181.07 1372.04 2189.07 1372.04 2189.07 1386.05 2181.07 1386.05ZM2200.07 1381.05 2208.07 1381.05 2208.07 1388.05 2200.07 1388.05ZM2219.07 1356.04 2227.07 1356.04 2227.07 1388.05 2219.07 1388.05ZM2238.07 1364.04 2245.07 1364.04 2245.07 1389.05 2238.07 1389.05ZM2257.07 1367.04 2264.07 1367.04 2264.07 1389.05 2257.07 1389.05ZM2276.07 1378.05 2283.07 1378.05 2283.07 1389.05 2276.07 1389.05ZM2295.08 1373.05 2302.08 1373.05 2302.08 1389.05 2295.08 1389.05ZM2313.08 1383.05 2321.08 1383.05 2321.08 1391.05 2313.08 1391.05ZM2332.08 1372.04 2340.08 1372.04 2340.08 1391.05 2332.08 1391.05ZM2351.08 1372.04 2359.08 1372.04 2359.08 1393.05 2351.08 1393.05ZM2370.08 1372.04 2378.08 1372.04 2378.08 1393.05 2370.08 1393.05ZM2389.08 1385.05 2396.08 1385.05 2396.08 1393.05 2389.08 1393.05ZM2408.08 1388.05 2415.08 1388.05 2415.08 1394.05 2408.08 1394.05ZM2427.08 1383.05 2434.08 1383.05 2434.08 1394.05 2427.08 1394.05ZM2445.08 1389.05 2453.08 1389.05 2453.08 1394.05 2445.08 1394.05ZM2464.08 1389.05 2472.08 1389.05 2472.08 1394.05 2464.08 1394.05ZM2483.08 1386.05 2491.08 1386.05 2491.08 1394.05 2483.08 1394.05ZM2502.08 1389.05 2510.08 1389.05 2510.08 1396.05 2502.08 1396.05ZM2521.08 1373.05 2528.08 1373.05 2528.08 1396.05 2521.08 1396.05ZM2540.08 1388.05 2547.08 1388.05 2547.08 1396.05 2540.08 1396.05ZM2559.08 1380.05 2566.08 1380.05 2566.08 1396.05 2559.08 1396.05ZM2596.09 1378.05 2604.09 1378.05 2604.09 1397.05 2596.09 1397.05ZM2615.09 1378.05 2623.09 1378.05 2623.09 1397.05 2615.09 1397.05ZM2634.09 1391.05 2642.09 1391.05 2642.09 1397.05 2634.09 1397.05ZM2653.09 1386.05 2661.09 1386.05 2661.09 1397.05 2653.09 1397.05ZM2672.09 1394.05 2679.09 1394.05 2679.09 1397.05 2672.09 1397.05ZM2691.09 1396.05 2698.09 1396.05 2698.09 1399.05 2691.09 1399.05ZM2710.09 1397.05 2717.09 1397.05 2717.09 1399.05 2710.09 1399.05ZM2728.09 1394.05 2736.09 1394.05 2736.09 1399.05 2728.09 1399.05ZM2747.09 1394.05 2755.09 1394.05 2755.09 1399.05 2747.09 1399.05ZM2766.09 1396.05 2774.09 1396.05 2774.09 1399.05 2766.09 1399.05ZM2785.09 1391.05 2793.09 1391.05 2793.09 1399.05 2785.09 1399.05ZM2804.09 1397.05 2811.09 1397.05 2811.09 1399.05 2804.09 1399.05ZM2823.09 1394.05 2830.09 1394.05 2830.09 1399.05 2823.09 1399.05ZM2842.09 1391.05 2849.09 1391.05 2849.09 1399.05 2842.09 1399.05ZM2860.09 1394.05 2868.09 1394.05 2868.09 1399.05 2860.09 1399.05ZM2898.1 1394.05 2906.1 1394.05 2906.1 1401.05 2898.1 1401.05ZM2917.1 1394.05 2925.1 1394.05 2925.1 1401.05 2917.1 1401.05ZM2936.1 1399.05 2943.1 1399.05 2943.1 1401.05 2936.1 1401.05ZM2974.1 1393.05 2981.1 1393.05 2981.1 1401.05 2974.1 1401.05ZM2993.1 1394.05 3000.1 1394.05 3000.1 1401.05 2993.1 1401.05ZM3011.1 1399.05 3019.1 1399.05 3019.1 1401.05 3011.1 1401.05ZM3030.1 1399.05 3038.1 1399.05 3038.1 1401.05 3030.1 1401.05ZM3049.1 1394.05 3057.1 1394.05 3057.1 1401.05 3049.1 1401.05ZM3068.1 1397.05 3076.1 1397.05 3076.1 1402.05 3068.1 1402.05ZM3087.1 1388.05 3094.1 1388.05 3094.1 1402.05 3087.1 1402.05ZM3125.1 1399.05 3132.1 1399.05 3132.1 1402.05 3125.1 1402.05ZM3143.1 1401.05 3151.1 1401.05 3151.1 1402.05 3143.1 1402.05ZM3200.1 1401.05 3208.11 1401.05 3208.11 1402.05 3200.1 1402.05ZM3219.11 1401.05 3226.11 1401.05 3226.11 1402.05 3219.11 1402.05ZM3238.11 1401.05 3245.11 1401.05 3245.11 1402.05 3238.11 1402.05ZM3257.11 1393.05 3264.11 1393.05 3264.11 1402.05 3257.11 1402.05ZM3294.11 1399.05 3302.11 1399.05 3302.11 1402.05 3294.11 1402.05ZM3313.11 1401.05 3321.11 1401.05 3321.11 1402.05 3313.11 1402.05ZM3332.11 1388.05 3340.11 1388.05 3340.11 1402.05 3332.11 1402.05ZM3408.11 1401.05 3415.11 1401.05 3415.11 1402.05 3408.11 1402.05ZM3426.11 1401.05 3434.11 1401.05 3434.11 1402.05 3426.11 1402.05ZM3483.11 1402.05 3491.11 1402.05 3491.11 1404 3483.11 1404ZM3540.12 1401.05 3547.12 1401.05 3547.12 1404 3540.12 1404ZM3577.12 1402.05 3585.12 1402.05 3585.12 1404 3577.12 1404ZM3596.12 1402.05 3604.12 1402.05 3604.12 1404 3596.12 1404ZM3634.12 1397.05 3642.12 1397.05 3642.12 1404 3634.12 1404ZM3653.12 1402.05 3660.12 1402.05 3660.12 1404 3653.12 1404ZM3691.12 1394.05 3698.12 1394.05 3698.12 1404 3691.12 1404ZM3709.12 1402.05 3717.12 1402.05 3717.12 1404 3709.12 1404ZM3728.12 1396.05 3736.12 1396.05 3736.12 1404 3728.12 1404ZM3747.12 1402.05 3755.12 1402.05 3755.12 1404 3747.12 1404ZM3766.12 1402.05 3774.12 1402.05 3774.12 1404 3766.12 1404ZM3785.12 1402.05 3792.12 1402.05 3792.12 1404 3785.12 1404ZM3804.12 1402.05 3811.12 1402.05 3811.12 1404 3804.12 1404ZM3823.13 1402.05 3830.13 1402.05 3830.13 1404 3823.13 1404ZM3841.13 1402.05 3849.13 1402.05 3849.13 1404 3841.13 1404ZM3879.13 1402.05 3887.13 1402.05 3887.13 1404 3879.13 1404ZM3917.13 1402.05 3924.13 1402.05 3924.13 1404 3917.13 1404Z" fill="#E97132"/></g><g><path d="M1710.06 669.022 1717.06 669.022 1717.06 895.029 1710.06 895.029ZM1729.06 865.028 1736.06 865.028 1736.06 1010.03 1729.06 1010.03ZM1747.06 988.032 1755.06 988.032 1755.06 1125.04 1747.06 1125.04ZM1766.06 1113.04 1774.06 1113.04 1774.06 1221.04 1766.06 1221.04ZM1785.06 1145.04 1793.06 1145.04 1793.06 1241.04 1785.06 1241.04ZM1804.06 1157.04 1812.06 1157.04 1812.06 1242.04 1804.06 1242.04ZM1823.06 1125.04 1830.06 1125.04 1830.06 1221.04 1823.06 1221.04ZM1842.06 1183.04 1849.06 1183.04 1849.06 1266.04 1842.06 1266.04ZM1861.06 1242.04 1868.06 1242.04 1868.06 1300.04 1861.06 1300.04ZM1879.06 1229.04 1887.06 1229.04 1887.06 1290.04 1879.06 1290.04ZM1898.06 1193.04 1906.06 1193.04 1906.06 1276.04 1898.06 1276.04ZM1917.06 1290.04 1925.06 1290.04 1925.06 1325.04 1917.06 1325.04ZM1936.06 1290.04 1944.06 1290.04 1944.06 1322.04 1936.06 1322.04ZM1955.06 1258.04 1962.06 1258.04 1962.06 1337.04 1955.06 1337.04ZM1974.06 1281.04 1981.07 1281.04 1981.07 1333.04 1974.06 1333.04ZM1993.07 1290.04 2000.07 1290.04 2000.07 1327.04 1993.07 1327.04ZM2012.07 1325.04 2019.07 1325.04 2019.07 1359.04 2012.07 1359.04ZM2030.07 1293.04 2038.07 1293.04 2038.07 1333.04 2030.07 1333.04ZM2049.07 1332.04 2057.07 1332.04 2057.07 1353.04 2049.07 1353.04ZM2068.07 1349.04 2076.07 1349.04 2076.07 1372.04 2068.07 1372.04ZM2087.07 1343.04 2095.07 1343.04 2095.07 1362.04 2087.07 1362.04ZM2106.07 1354.04 2113.07 1354.04 2113.07 1369.04 2106.07 1369.04ZM2125.07 1341.04 2132.07 1341.04 2132.07 1361.04 2125.07 1361.04ZM2144.07 1346.04 2151.07 1346.04 2151.07 1370.04 2144.07 1370.04ZM2162.07 1305.04 2170.07 1305.04 2170.07 1351.04 2162.07 1351.04ZM2181.07 1330.04 2189.07 1330.04 2189.07 1372.04 2181.07 1372.04ZM2200.07 1365.04 2208.07 1365.04 2208.07 1381.05 2200.07 1381.05ZM2219.07 1341.04 2227.07 1341.04 2227.07 1356.04 2219.07 1356.04ZM2238.07 1333.04 2245.07 1333.04 2245.07 1364.04 2238.07 1364.04ZM2257.07 1332.04 2264.07 1332.04 2264.07 1367.04 2257.07 1367.04ZM2276.07 1362.04 2283.07 1362.04 2283.07 1378.05 2276.07 1378.05ZM2295.08 1353.04 2302.08 1353.04 2302.08 1373.05 2295.08 1373.05ZM2313.08 1364.04 2321.08 1364.04 2321.08 1383.05 2313.08 1383.05ZM2332.08 1357.04 2340.08 1357.04 2340.08 1372.04 2332.08 1372.04ZM2351.08 1362.04 2359.08 1362.04 2359.08 1372.04 2351.08 1372.04ZM2370.08 1364.04 2378.08 1364.04 2378.08 1372.04 2370.08 1372.04ZM2389.08 1378.05 2396.08 1378.05 2396.08 1385.05 2389.08 1385.05ZM2408.08 1375.05 2415.08 1375.05 2415.08 1388.05 2408.08 1388.05ZM2427.08 1367.04 2434.08 1367.04 2434.08 1383.05 2427.08 1383.05ZM2445.08 1372.04 2453.08 1372.04 2453.08 1389.05 2445.08 1389.05ZM2464.08 1378.05 2472.08 1378.05 2472.08 1389.05 2464.08 1389.05ZM2483.08 1373.05 2491.08 1373.05 2491.08 1386.05 2483.08 1386.05ZM2502.08 1381.05 2510.08 1381.05 2510.08 1389.05 2502.08 1389.05ZM2521.08 1337.04 2528.08 1337.04 2528.08 1373.05 2521.08 1373.05ZM2540.08 1365.04 2547.08 1365.04 2547.08 1388.05 2540.08 1388.05ZM2559.08 1349.04 2566.08 1349.04 2566.08 1380.05 2559.08 1380.05ZM2577.08 1396.05 2585.08 1396.05 2585.08 1397.05 2577.08 1397.05ZM2596.09 1359.04 2604.09 1359.04 2604.09 1378.05 2596.09 1378.05ZM2615.09 1364.04 2623.09 1364.04 2623.09 1378.05 2615.09 1378.05ZM2634.09 1383.05 2642.09 1383.05 2642.09 1391.05 2634.09 1391.05ZM2653.09 1377.05 2661.09 1377.05 2661.09 1386.05 2653.09 1386.05ZM2672.09 1393.05 2679.09 1393.05 2679.09 1394.05 2672.09 1394.05ZM2691.09 1394.05 2698.09 1394.05 2698.09 1396.05 2691.09 1396.05ZM2710.09 1383.05 2717.09 1383.05 2717.09 1397.05 2710.09 1397.05ZM2728.09 1391.05 2736.09 1391.05 2736.09 1394.05 2728.09 1394.05ZM2747.09 1391.05 2755.09 1391.05 2755.09 1394.05 2747.09 1394.05ZM2766.09 1386.05 2774.09 1386.05 2774.09 1396.05 2766.09 1396.05ZM2785.09 1383.05 2793.09 1383.05 2793.09 1391.05 2785.09 1391.05ZM2804.09 1396.05 2811.09 1396.05 2811.09 1397.05 2804.09 1397.05ZM2823.09 1389.05 2830.09 1389.05 2830.09 1394.05 2823.09 1394.05ZM2842.09 1383.05 2849.09 1383.05 2849.09 1391.05 2842.09 1391.05ZM2860.09 1386.05 2868.09 1386.05 2868.09 1394.05 2860.09 1394.05ZM2879.09 1396.05 2887.09 1396.05 2887.09 1401.05 2879.09 1401.05ZM2898.1 1386.05 2906.1 1386.05 2906.1 1394.05 2898.1 1394.05ZM2917.1 1381.05 2925.1 1381.05 2925.1 1394.05 2917.1 1394.05ZM2936.1 1397.05 2943.1 1397.05 2943.1 1399.05 2936.1 1399.05ZM2955.1 1397.05 2962.1 1397.05 2962.1 1401.05 2955.1 1401.05ZM2974.1 1381.05 2981.1 1381.05 2981.1 1393.05 2974.1 1393.05ZM2993.1 1388.05 3000.1 1388.05 3000.1 1394.05 2993.1 1394.05ZM3011.1 1394.05 3019.1 1394.05 3019.1 1399.05 3011.1 1399.05ZM3030.1 1393.05 3038.1 1393.05 3038.1 1399.05 3030.1 1399.05ZM3049.1 1391.05 3057.1 1391.05 3057.1 1394.05 3049.1 1394.05ZM3068.1 1396.05 3076.1 1396.05 3076.1 1397.05 3068.1 1397.05ZM3087.1 1380.05 3094.1 1380.05 3094.1 1388.05 3087.1 1388.05ZM3125.1 1397.05 3132.1 1397.05 3132.1 1399.05 3125.1 1399.05ZM3162.1 1397.05 3170.1 1397.05 3170.1 1402.05 3162.1 1402.05ZM3200.1 1396.05 3208.11 1396.05 3208.11 1401.05 3200.1 1401.05ZM3219.11 1396.05 3226.11 1396.05 3226.11 1401.05 3219.11 1401.05ZM3238.11 1399.05 3245.11 1399.05 3245.11 1401.05 3238.11 1401.05ZM3257.11 1370.04 3264.11 1370.04 3264.11 1393.05 3257.11 1393.05ZM3276.11 1401.05 3283.11 1401.05 3283.11 1402.05 3276.11 1402.05ZM3294.11 1397.05 3302.11 1397.05 3302.11 1399.05 3294.11 1399.05ZM3332.11 1370.04 3340.11 1370.04 3340.11 1388.05 3332.11 1388.05ZM3370.11 1397.05 3377.11 1397.05 3377.11 1402.05 3370.11 1402.05ZM3389.11 1396.05 3396.11 1396.05 3396.11 1402.05 3389.11 1402.05ZM3408.11 1396.05 3415.11 1396.05 3415.11 1401.05 3408.11 1401.05ZM3445.11 1402.05 3453.11 1402.05 3453.11 1404 3445.11 1404ZM3464.11 1401.05 3472.11 1401.05 3472.11 1404 3464.11 1404ZM3502.11 1402.05 3509.12 1402.05 3509.12 1404 3502.11 1404ZM3521.12 1402.05 3528.12 1402.05 3528.12 1404 3521.12 1404ZM3559.12 1402.05 3566.12 1402.05 3566.12 1404 3559.12 1404ZM3577.12 1394.05 3585.12 1394.05 3585.12 1402.05 3577.12 1402.05ZM3615.12 1402.05 3623.12 1402.05 3623.12 1404 3615.12 1404ZM3634.12 1389.05 3642.12 1389.05 3642.12 1397.05 3634.12 1397.05ZM3653.12 1401.05 3660.12 1401.05 3660.12 1402.05 3653.12 1402.05ZM3672.12 1401.05 3679.12 1401.05 3679.12 1404 3672.12 1404ZM3691.12 1386.05 3698.12 1386.05 3698.12 1394.05 3691.12 1394.05ZM3709.12 1393.05 3717.12 1393.05 3717.12 1402.05 3709.12 1402.05ZM3728.12 1385.05 3736.12 1385.05 3736.12 1396.05 3728.12 1396.05ZM3804.12 1399.05 3811.12 1399.05 3811.12 1402.05 3804.12 1402.05ZM3860.13 1402.05 3868.13 1402.05 3868.13 1404 3860.13 1404ZM3879.13 1399.05 3887.13 1399.05 3887.13 1402.05 3879.13 1402.05ZM3898.13 1402.05 3906.13 1402.05 3906.13 1404 3898.13 1404ZM3936.13 1402.05 3943.13 1402.05 3943.13 1404 3936.13 1404Z" fill="#196B24"/></g><g><path d="M1704.5 1403.5 3968.5 1403.5" stroke="#D9D9D9" stroke-width="3.4375" stroke-linejoin="round" stroke-miterlimit="10" fill="none" fill-rule="evenodd"/></g><g><text fill="#595959" font-family="Charter,Charter_MSFontService,sans-serif" font-weight="400" font-size="41" transform="matrix(1 0 0 1 1643.17 1417)">0</text></g><g><text fill="#595959" font-family="Charter,Charter_MSFontService,sans-serif" font-weight="400" font-size="41" transform="matrix(1 0 0 1 1620.23 1337)">50</text></g><g><text fill="#595959" font-family="Charter,Charter_MSFontService,sans-serif" font-weight="400" font-size="41" transform="matrix(1 0 0 1 1597.29 1257)">100</text></g><g><text fill="#595959" font-family="Charter,Charter_MSFontService,sans-serif" font-weight="400" font-size="41" transform="matrix(1 0 0 1 1597.29 1177)">150</text></g><g><text fill="#595959" font-family="Charter,Charter_MSFontService,sans-serif" font-weight="400" font-size="41" transform="matrix(1 0 0 1 1597.29 1097)">200</text></g><g><text fill="#595959" font-family="Charter,Charter_MSFontService,sans-serif" font-weight="400" font-size="41" transform="matrix(1 0 0 1 1597.29 1017)">250</text></g><g><text fill="#595959" font-family="Charter,Charter_MSFontService,sans-serif" font-weight="400" font-size="41" transform="matrix(1 0 0 1 1597.29 937)">300</text></g><g><text fill="#595959" font-family="Charter,Charter_MSFontService,sans-serif" font-weight="400" font-size="41" transform="matrix(1 0 0 1 1597.29 857)">350</text></g><g><text fill="#595959" font-family="Charter,Charter_MSFontService,sans-serif" font-weight="400" font-size="41" transform="matrix(1 0 0 1 1597.29 777)">400</text></g><g><text fill="#595959" font-family="Charter,Charter_MSFontService,sans-serif" font-weight="400" font-size="41" transform="matrix(1 0 0 1 1597.29 697)">450</text></g><g><text fill="#595959" font-family="Charter,Charter_MSFontService,sans-serif" font-weight="400" font-size="41" transform="matrix(1 0 0 1 1597.29 617)">500</text></g><g><text fill="#595959" font-family="Charter,Charter_MSFontService,sans-serif" font-weight="400" font-size="41" transform="matrix(6.12323e-17 -1 1 6.12323e-17 1728.78 1508)">USA</text></g><g><text fill="#595959" font-family="Charter,Charter_MSFontService,sans-serif" font-weight="400" font-size="41" transform="matrix(6.12323e-17 -1 1 6.12323e-17 1785.38 1501)">JPN</text></g><g><text fill="#595959" font-family="Charter,Charter_MSFontService,sans-serif" font-weight="400" font-size="41" transform="matrix(6.12323e-17 -1 1 6.12323e-17 1841.98 1506)">FRA</text></g><g><text fill="#595959" font-family="Charter,Charter_MSFontService,sans-serif" font-weight="400" font-size="41" transform="matrix(6.12323e-17 -1 1 6.12323e-17 1898.58 1512)">NED</text></g><g><text fill="#595959" font-family="Charter,Charter_MSFontService,sans-serif" font-weight="400" font-size="41" transform="matrix(6.12323e-17 -1 1 6.12323e-17 1955.18 1505)">NZL</text></g><g><text fill="#595959" font-family="Charter,Charter_MSFontService,sans-serif" font-weight="400" font-size="41" transform="matrix(6.12323e-17 -1 1 6.12323e-17 2011.77 1513)">ROC</text></g><g><text fill="#595959" font-family="Charter,Charter_MSFontService,sans-serif" font-weight="400" font-size="41" transform="matrix(6.12323e-17 -1 1 6.12323e-17 2068.37 1509)">KEN</text></g><g><text fill="#595959" font-family="Charter,Charter_MSFontService,sans-serif" font-weight="400" font-size="41" transform="matrix(6.12323e-17 -1 1 6.12323e-17 2124.97 1513)">CRO</text></g><g><text fill="#595959" font-family="Charter,Charter_MSFontService,sans-serif" font-weight="400" font-size="41" transform="matrix(6.12323e-17 -1 1 6.12323e-17 2181.57 1511)">UKR</text></g><g><text fill="#595959" font-family="Charter,Charter_MSFontService,sans-serif" font-weight="400" font-size="41" transform="matrix(6.12323e-17 -1 1 6.12323e-17 2238.17 1515)">SWE</text></g><g><text fill="#595959" font-family="Charter,Charter_MSFontService,sans-serif" font-weight="400" font-size="41" transform="matrix(6.12323e-17 -1 1 6.12323e-17 2294.77 1505)">SRB</text></g><g><text fill="#595959" font-family="Charter,Charter_MSFontService,sans-serif" font-weight="400" font-size="41" transform="matrix(6.12323e-17 -1 1 6.12323e-17 2351.37 1513)">GEO</text></g><g><text fill="#595959" font-family="Charter,Charter_MSFontService,sans-serif" font-weight="400" font-size="41" transform="matrix(6.12323e-17 -1 1 6.12323e-17 2407.96 1505)">SLO</text></g><g><text fill="#595959" font-family="Charter,Charter_MSFontService,sans-serif" font-weight="400" font-size="41" transform="matrix(6.12323e-17 -1 1 6.12323e-17 2464.56 1509)">GRE</text></g><g><text fill="#595959" font-family="Charter,Charter_MSFontService,sans-serif" font-weight="400" font-size="41" transform="matrix(6.12323e-17 -1 1 6.12323e-17 2521.16 1512)">ARG</text></g><g><text fill="#595959" font-family="Charter,Charter_MSFontService,sans-serif" font-weight="400" font-size="41" transform="matrix(6.12323e-17 -1 1 6.12323e-17 2577.76 1510)">TUR</text></g><g><text fill="#595959" font-family="Charter,Charter_MSFontService,sans-serif" font-weight="400" font-size="41" transform="matrix(6.12323e-17 -1 1 6.12323e-17 2634.36 1508)">COL</text></g><g><text fill="#595959" font-family="Charter,Charter_MSFontService,sans-serif" font-weight="400" font-size="41" transform="matrix(6.12323e-17 -1 1 6.12323e-17 2690.96 1514)">UGA</text></g><g><text fill="#595959" font-family="Charter,Charter_MSFontService,sans-serif" font-weight="400" font-size="41" transform="matrix(6.12323e-17 -1 1 6.12323e-17 2747.56 1511)">BRN</text></g><g><text fill="#595959" font-family="Charter,Charter_MSFontService,sans-serif" font-weight="400" font-size="41" transform="matrix(6.12323e-17 -1 1 6.12323e-17 2804.16 1493)">ISR</text></g><g><text fill="#595959" font-family="Charter,Charter_MSFontService,sans-serif" font-weight="400" font-size="41" transform="matrix(6.12323e-17 -1 1 6.12323e-17 2860.75 1504)">SVK</text></g><g><text fill="#595959" font-family="Charter,Charter_MSFontService,sans-serif" font-weight="400" font-size="41" transform="matrix(6.12323e-17 -1 1 6.12323e-17 2917.35 1525)">DOM</text></g><g><text fill="#595959" font-family="Charter,Charter_MSFontService,sans-serif" font-weight="400" font-size="41" transform="matrix(6.12323e-17 -1 1 6.12323e-17 2973.95 1503)">LAT</text></g><g><text fill="#595959" font-family="Charter,Charter_MSFontService,sans-serif" font-weight="400" font-size="41" transform="matrix(6.12323e-17 -1 1 6.12323e-17 3030.55 1509)">PUR</text></g><g><text fill="#595959" font-family="Charter,Charter_MSFontService,sans-serif" font-weight="400" font-size="41" transform="matrix(6.12323e-17 -1 1 6.12323e-17 3087.15 1499)">AIN</text></g><g><text fill="#595959" font-family="Charter,Charter_MSFontService,sans-serif" font-weight="400" font-size="41" transform="matrix(6.12323e-17 -1 1 6.12323e-17 3143.75 1510)">BOT</text></g><g><text fill="#595959" font-family="Charter,Charter_MSFontService,sans-serif" font-weight="400" font-size="41" transform="matrix(6.12323e-17 -1 1 6.12323e-17 3200.35 1521)">DMA</text></g><g><text fill="#595959" font-family="Charter,Charter_MSFontService,sans-serif" font-weight="400" font-size="41" transform="matrix(6.12323e-17 -1 1 6.12323e-17 3256.94 1514)">GUA</text></g><g><text fill="#595959" font-family="Charter,Charter_MSFontService,sans-serif" font-weight="400" font-size="41" transform="matrix(6.12323e-17 -1 1 6.12323e-17 3313.54 1506)">JOR</text></g><g><text fill="#595959" font-family="Charter,Charter_MSFontService,sans-serif" font-weight="400" font-size="41" transform="matrix(6.12323e-17 -1 1 6.12323e-17 3370.14 1505)">PAK</text></g><g><text fill="#595959" font-family="Charter,Charter_MSFontService,sans-serif" font-weight="400" font-size="41" transform="matrix(6.12323e-17 -1 1 6.12323e-17 3426.74 1510)">TTO</text></g><g><text fill="#595959" font-family="Charter,Charter_MSFontService,sans-serif" font-weight="400" font-size="41" transform="matrix(6.12323e-17 -1 1 6.12323e-17 3483.34 1503)">ALB</text></g><g><text fill="#595959" font-family="Charter,Charter_MSFontService,sans-serif" font-weight="400" font-size="41" transform="matrix(6.12323e-17 -1 1 6.12323e-17 3539.94 1505)">CPV</text></g><g><text fill="#595959" font-family="Charter,Charter_MSFontService,sans-serif" font-weight="400" font-size="41" transform="matrix(6.12323e-17 -1 1 6.12323e-17 3596.54 1495)">FIN</text></g><g><text fill="#595959" font-family="Charter,Charter_MSFontService,sans-serif" font-weight="400" font-size="41" transform="matrix(6.12323e-17 -1 1 6.12323e-17 3653.13 1508)">KGZ</text></g><g><text fill="#595959" font-family="Charter,Charter_MSFontService,sans-serif" font-weight="400" font-size="41" transform="matrix(6.12323e-17 -1 1 6.12323e-17 3709.73 1515)">MAS</text></g><g><text fill="#595959" font-family="Charter,Charter_MSFontService,sans-serif" font-weight="400" font-size="41" transform="matrix(6.12323e-17 -1 1 6.12323e-17 3766.33 1520)">MKD</text></g><g><text fill="#595959" font-family="Charter,Charter_MSFontService,sans-serif" font-weight="400" font-size="41" transform="matrix(6.12323e-17 -1 1 6.12323e-17 3822.93 1515)">NGR</text></g><g><text fill="#595959" font-family="Charter,Charter_MSFontService,sans-serif" font-weight="400" font-size="41" transform="matrix(6.12323e-17 -1 1 6.12323e-17 3879.53 1504)">PER</text></g><g><text fill="#595959" font-family="Charter,Charter_MSFontService,sans-serif" font-weight="400" font-size="41" transform="matrix(6.12323e-17 -1 1 6.12323e-17 3936.13 1516)">TKM</text></g><g><rect x="2561" y="1582" width="23" height="22" fill="#156082"/></g><g><text fill="#595959" font-family="Charter,Charter_MSFontService,sans-serif" font-weight="400" font-size="41" transform="matrix(1 0 0 1 2592.94 1606)">Gold</text></g><g><rect x="2714" y="1582" width="22" height="22" fill="#E97132"/></g><g><text fill="#595959" font-family="Charter,Charter_MSFontService,sans-serif" font-weight="400" font-size="41" transform="matrix(1 0 0 1 2745.64 1606)">Silver</text></g><g><rect x="2883" y="1582" width="23" height="22" fill="#196B24"/></g><g><text fill="#595959" font-family="Charter,Charter_MSFontService,sans-serif" font-weight="400" font-size="41" transform="matrix(1 0 0 1 2915.06 1606)">Bronze</text></g><rect x="1567.5" y="553.5" width="2451" height="1106" stroke="#D9D9D9" stroke-width="3.4375" stroke-linejoin="round" stroke-miterlimit="10" fill="none"/></g></svg>